# xmcd
#
# Track frame offsets: 
#        150
#        40711
#        71090
#        97806
#        125586
#        156948
#
# Disc length: 2205 seconds
#
# Revision: 0
# Processed by: cddbd v1.5.2PL0 Copyright (c) Steve Scherf et al.
# Submitted via: ExactAudioCopyFreeDBPlugin 1.0
#
DISCID=48089b06
DTITLE=Infamous - Of Solitude and Silence
DYEAR=2011
DGENRE=Black Metal
TTITLE0=Of Solitude and Silence
TTITLE1=Rex Verminorum
TTITLE2=Grey Euphoria
TTITLE3=Human Scum
TTITLE4=Spiritual Desolation
TTITLE5=Lugore
EXTD=
EXTT0=
EXTT1=
EXTT2=
EXTT3=
EXTT4=
EXTT5=
PLAYORDER=
